<?xml version="1.0" standalone="no"?><!DOCTYPE svg PUBLIC "-//W3C//DTD SVG 1.1//EN" "http://www.w3.org/Graphics/SVG/1.1/DTD/svg11.dtd"><svg t="1726483256891" class="icon" viewBox="0 0 1024 1024" version="1.1" xmlns="http://www.w3.org/2000/svg" p-id="1544" data-spm-anchor-id="a313x.search_index.0.i1.65763a81z71FFJ" xmlns:xlink="http://www.w3.org/1999/xlink" width="200" height="200"><path d="M943.582971 429.391561l-0.207731-0.63138L820.552913 97.92017c-4.630461-15.817244-14.048971-29.413913-27.253714-39.33589-13.32447-9.983375-29.137621-15.257495-45.732577-15.257495L117.315404 43.326784c-23.462365 0-42.548048 19.086707-42.548048 42.549072l0 483.965503c0 23.462365 19.085684 42.549072 42.548048 42.549072l194.065927 0c62.158688 43.083238 206.193129 157.920706 206.193129 296.435433l0 0.635473 0.091074 0.63138c0.232291 1.642406 0.261966 4.40124 0.293689 7.320733 0.113587 10.379395 0.283456 26.062586 9.155521 39.417755 10.508331 15.821337 30.237675 23.844058 58.640562 23.844058l0.685615 0 0.679475-0.106424c1.856277-0.281409 45.846164-7.528464 77.226872-57.577347 18.675338-29.783327 28.881794-68.473511 30.333866-114.991987 1.702782-54.591339-8.720615-120.352065-30.992875-195.609073l142.413524 0c21.714558 0 43.48335-5.030573 62.954821-14.548344 20.418029-9.981329 37.735439-24.317848 51.470255-42.61354 13.739932-18.301831 22.686698-38.923498 26.593681-61.297065C950.849468 472.572012 949.626617 450.250634 943.582971 429.391561zM117.315404 80.164784l157.475568 0 0 495.386624L117.315404 575.551408c-3.094478 0-5.709025-2.614547-5.709025-5.710049L111.606379 85.874833C111.606379 82.779332 114.219903 80.164784 117.315404 80.164784zM910.830009 487.59517c-2.89698 16.590863-9.547447 31.907711-19.763113 45.51666-10.204409 13.592576-23.050995 24.233937-38.185694 31.632441-14.464433 7.068999-30.639834 10.80509-46.77942 10.80509l-142.413524 0c-11.620665 0-22.560832 5.483898-29.515221 14.793938-6.955412 9.312086-9.106402 21.357424-5.811356 32.500205 21.151739 71.473845 31.075763 133.381823 29.496801 184.006827-1.246387 39.902802-9.56382 72.39482-24.722054 96.570429-19.017122 30.327726-43.339064 38.587853-50.161447 40.374546-12.82305-0.345877-22.349007-3.093455-25.175379-7.349385-2.837628-4.273327-2.933819-13.032828-3.00545-19.428491-0.036839-3.388167-0.071631-6.607488-0.388856-9.845229-1.091868-155.196665-155.512866-278.951223-222.040049-325.0614-6.095835-4.225231-13.32447-6.502088-20.738323-6.551206L311.626925 80.164784l435.936627 0c8.676613 0 16.618493 2.64934 23.607674 7.873318 6.889921 5.180999 11.609409 11.988032 14.023388 20.231787 0.242524 0.831948 0.517793 1.656733 0.819668 2.470261l122.441657 329.821821C912.725172 455.801047 913.545864 472.040916 910.830009 487.59517z" p-id="1545" fill="#2c2c2c"></path></svg>